<svg width="22" height="19" viewBox="0 0 22 19" fill="none" xmlns="http://www.w3.org/2000/svg">
<path d="M19.4349 3.82166H16.8132L13.7366 0.723328C13.3249 0.333328 12.6966 0.333328 12.2849 0.723328C11.8949 1.13499 11.8949 1.76333 12.2849 2.17499L13.9316 3.82166H8.01656L9.66323 2.17499C10.0532 1.76333 10.0532 1.13499 9.66323 0.723328C9.27323 0.333328 8.62323 0.333328 8.23323 0.723328L5.1349 3.82166H2.51323C1.38656 3.82166 0.476562 4.73166 0.476562 5.85833V8.89166C0.476562 9.455 0.931562 9.91 1.4949 9.91H1.97156L2.96823 16.3233C3.16323 17.71 4.3549 18.7283 5.76323 18.7067H16.2066C17.5932 18.7283 18.7849 17.71 18.9799 16.3233L19.9766 9.91H20.4532C21.0166 9.91 21.4716 9.455 21.4716 8.89166V5.85833C21.4716 4.73166 20.5616 3.82166 19.4349 3.82166ZM2.51323 7.87333V5.85833H19.4349V7.87333H2.51323ZM17.9182 9.91L16.9866 16.02C16.9216 16.41 16.5966 16.6917 16.2066 16.6917H5.76323C5.37323 16.6917 5.02656 16.41 4.98323 16.02L4.0299 9.91H17.9182ZM7.25823 14.3083V12.2933C7.25823 11.73 7.71323 11.275 8.27656 11.275C8.81823 11.275 9.27323 11.73 9.27323 12.2933V14.3083C9.27323 14.8717 8.81823 15.3267 8.27656 15.3267C7.71323 15.3267 7.25823 14.8717 7.25823 14.3083ZM11.9816 14.3083V12.2933C11.9816 11.73 12.4366 11.275 12.9999 11.275C13.5632 11.275 14.0182 11.73 14.0182 12.2933V14.3083C14.0182 14.8717 13.5632 15.3267 12.9999 15.3267C12.4366 15.3267 11.9816 14.8717 11.9816 14.3083Z" fill="#5B5858"/>
</svg>
